<svg xmlns="http://www.w3.org/2000/svg" viewBox="0 0 134 17"><path d="M0 0h24.29a4.45 4.45 0 00.73 0H95.7a5.61 5.61 0 00.58 0h37.64v13.23h-9.31V7.58h1.85v3.77h5.58V1.94h-13.03v11.31h-9.3V7.6h1.86v3.77h5.57V1.94h-13.01v11.31h-9.31V7.59h1.86v3.76h5.57V1.92H89.26v11.27H80V7.56h1.85v3.77h5.57V1.9H74.4v11.34h-9.26V7.58H67v3.77h5.57V1.94H59.58v11.29h-9.31V7.57h1.85v3.77h5.54V1.92H44.63v11.34h-9.35V7.61h1.86v3.77h5.66v-9.5H29.73v11.31h-9.25V7.53h1.85v3.77h5.57V1.86H14.89v11.33h-9.3V8.02a4 4 0 010-.49h1.85v3.77h5.58V1.83H0z" fill="#343432"/><path d="M1.86 3.79h9.31v5.64h-1.9V5.68H3.72v9.44h13.02V3.83h9.3V8.6a7.66 7.66 0 010 .83H24.2V5.66h-5.58v9.37h13.02V3.72h9.3v5.65h-1.86V5.61H33.5v9.42h13V3.72h9.3v5.65h-1.89V5.68h-5.52v9.42h13.03V3.79h9.29v5.69h-1.85V5.7h-5.54v9.42h13.03V3.81h9.33v5.65h-1.93V5.7h-5.58v9.43H91.2V3.82h9.29v5.66h-1.86V5.71h-5.57v9.42h13.02V3.82h9.31v5.65h-1.85V5.71H108v9.44h13V3.8h9.31v5.65h-1.82V5.69h-5.57v9.43H134V17H69.65a8.26 8.26 0 00-.86 0H4.55a6.91 6.91 0 00-.79 0H.52A4.52 4.52 0 010 17v-1.91h1.86V5.12c.01-.45-.02-.89 0-1.33z" fill="#343432"/></svg>